Coordinates
version=1
nRows=7
nColumns=40
inDegrees=yes
endheader
time	pelvis_tilt	pelvis_list	pelvis_rotation	pelvis_tx	pelvis_ty	pelvis_tz	hip_flexion_r	hip_adduction_r	hip_rotation_r	knee_angle_r	knee_angle_r_beta	ankle_angle_r	subtalar_angle_r	mtp_angle_r	hip_flexion_l	hip_adduction_l	hip_rotation_l	knee_angle_l	knee_angle_l_beta	ankle_angle_l	subtalar_angle_l	mtp_angle_l	lumbar_extension	lumbar_bending	lumbar_rotation	arm_flex_r	arm_add_r	arm_rot_r	elbow_flex_r	pro_sup_r	wrist_flex_r	wrist_dev_r	arm_flex_l	arm_add_l	arm_rot_l	elbow_flex_l	pro_sup_l	wrist_flex_l	wrist_dev_l
1760625421.04394102	     16.62549717	      5.04303923	      2.75091521	      0.15919464	      0.84433625	      0.02127614	     80.00000000	     -7.00000000	      0.00000000	     80.00000000	      1.39626340	      0.00000000	      0.00000000	      0.00000000	     80.00000000	     -7.00000000	      0.00000000	     80.00000000	      1.39626340	      0.00000000	      0.00000000	      0.00000000	    -20.48959421	    -11.53928403	    -29.93093979	     33.79493148	     24.95179923	     90.00000018	      0.00000000	     47.18358565	    -70.00000021	    -24.99999983	    -25.46154375	     -1.33643342	    -28.26646823	    122.23434118	    179.99845895	     -0.13979033	     35.00000010
1760625421.05394101	     16.62578337	      5.04402936	      2.75051717	      0.15920721	      0.84435050	      0.02126313	     80.00000000	     -7.00000000	      0.00000000	     80.00000000	      1.39626340	      0.00000000	      0.00000000	      0.00000000	     80.00000000	     -7.00000000	      0.00000000	     80.00000000	      1.39626340	      0.00000000	      0.00000000	      0.00000000	    -20.48904171	    -11.53860344	    -29.93086116	     33.79509484	     24.95169025	     90.00000018	      0.00000000	     47.18350009	    -70.00000021	    -24.99999983	    -25.46119326	     -1.33673136	    -28.26650958	    122.23528093	    179.99843040	     -0.14017736	     35.00000010
1760625421.06394100	     16.62628732	      5.04506965	      2.75014952	      0.15922007	      0.84435988	      0.02124061	     80.00000000	     -7.00000000	      0.00000000	     80.00000000	      1.39626340	      0.00000000	      0.00000000	      0.00000000	     80.00000000	     -7.00000000	      0.00000000	     80.00000000	      1.39626340	      0.00000000	      0.00000000	      0.00000000	    -20.48830911	    -11.53787487	    -29.93069447	     33.79530734	     24.95177177	     90.00000018	      0.00000000	     47.18342846	    -70.00000021	    -24.99999983	    -25.46075408	     -1.33714622	    -28.26662489	    122.23631963	    179.99839375	     -0.14056916	     35.00000010
1760625421.07394099	     16.62685102	      5.04623955	      2.74989806	      0.15922057	      0.84434341	      0.02123078	     80.00000000	     -7.00000000	      0.00000000	     80.00000000	      1.39626340	      0.00000000	      0.00000000	      0.00000000	     80.00000000	     -7.00000000	      0.00000000	     80.00000000	      1.39626340	      0.00000000	      0.00000000	      0.00000000	    -20.48776918	    -11.53707910	    -29.93048947	     33.79555698	     24.95199859	     90.00000018	      0.00000000	     47.18336615	    -70.00000021	    -24.99999983	    -25.46057874	     -1.33734457	    -28.26653938	    122.23705057	    179.99834247	     -0.14093746	     35.00000010
1760625421.08394098	     16.63481917	      5.06200903	      2.74367576	      0.15929084	      0.84434946	      0.02109643	     80.00000000	     -7.00000000	      0.00000000	     80.00000000	      1.39626340	      0.00000000	      0.00000000	      0.00000000	     80.00000000	     -7.00000000	      0.00000000	     80.00000000	      1.39626340	      0.00000000	      0.00000000	      0.00000000	    -20.47727381	    -11.52611596	    -29.93006344	     33.80099194	     24.95484277	     90.00000018	      0.00000000	     47.18234845	    -70.00000021	    -24.99999983	    -25.45352416	     -1.34345392	    -28.26723429	    122.25135947	    179.99752370	     -0.14692261	     35.00000010
1760625421.09394097	     16.63462563	      5.06191129	      2.74339944	      0.15931376	      0.84432241	      0.02106767	     80.00000000	     -7.00000000	      0.00000000	     80.00000000	      1.39626340	      0.00000000	      0.00000000	      0.00000000	     80.00000000	     -7.00000000	      0.00000000	     80.00000000	      1.39626340	      0.00000000	      0.00000000	      0.00000000	    -20.47752866	    -11.52632050	    -29.92998375	     33.80131477	     24.95520396	     90.00000018	      0.00000000	     47.18229344	    -70.00000021	    -24.99999983	    -25.45307725	     -1.34384860	    -28.26732127	    122.25196951	    179.99746712	     -0.14727574	     35.00000010
1760625421.10394096	     16.63922741	      5.07551167	      2.73237110	      0.15931804	      0.84423380	      0.02096093	     80.00000000	     -7.00000000	      0.00000000	     80.00000000	      1.39626340	      0.00000000	      0.00000000	      0.00000000	     80.00000000	     -7.00000000	      0.00000000	     80.00000000	      1.39626340	      0.00000000	      0.00000000	      0.00000000	    -20.46784834	    -11.51969638	    -29.93294109	     33.81308211	     24.96203845	     90.00000018	      0.00000000	     47.17975539	    -70.00000021	    -24.99999983	    -25.42707173	     -1.35971418	    -28.27273630	    122.28704352	    179.99584126	     -0.16258937	     35.00000010
